# xmcd
#
# Track frame offsets:
#	150
#	14105
#	24615
#	37562
#	51302
#	65762
#	80740
#	94750
#	108697
#	121397
#	134152
#	144870
#	156557
#	168140
#	179485
#
# Disc length: 2557 seconds
# Revision: 0
# Processed by: cddbd v1.5.2PL0 Copyright (c) Steve Scherf et al.
# Submitted via: dBpowerAMP V12.0
#
DISCID=d909fb0f
DTITLE=Various Artist - Blues and Soul Records presents "Someting Inside Of Me"
DYEAR=1900
DGENRE=Blues
TTITLE0=Elmore James - Please Find My Baby
TTITLE1=Elmore James - Hawaiian Boogie
TTITLE2=Elmore James - Sinful Woman
TTITLE3=Little Johnny Jones - Sweet Little Woman
TTITLE4=J. T. Brown - Dumb Woman Blues
TTITLE5=Elmore James - Wild About You (Baby)
TTITLE6=Junior Wells - Hoodoo Man
TTITLE7=Elmore James - It Hurt Me too
TTITLE8=Elmore James - Cry For Me Baby
TTITLE9=Elmore James - The Sky Is Crying
TTITLE10=Elmore James - Done Somebody Wrong
TTITLE11=Elmore James - Shake Your Moneymaker
TTITLE12=Sam Myers - Poor Little Angel Chile
TTITLE13=Marshall Jones feat. Elmore James - You Can Do It You Wanna
TTITLE14=Elmore James - Dunt My Broom
EXTD=
EXTT0=
EXTT1=
EXTT2=
EXTT3=
EXTT4=
EXTT5=
EXTT6=
EXTT7=
EXTT8=
EXTT9=
EXTT10=
EXTT11=
EXTT12=
EXTT13=
EXTT14=
PLAYORDER=
